<svg width="40" height="15" viewBox="0 0 40 15" fill="none" xmlns="http://www.w3.org/2000/svg">
<g clip-path="url(#clip0_13210_3684)">
<path d="M10.9993 14.174C9.56035 14.6945 8.04353 14.9671 6.51341 14.98C5.62723 15.0324 4.73942 14.9091 3.9011 14.617C3.06277 14.325 2.29046 13.8701 1.62863 13.2785C1.07637 12.6839 0.647977 11.9854 0.368426 11.2237C0.0888752 10.4619 -0.0362424 9.65207 0.000366366 8.84145C-0.0129325 7.58245 0.242324 6.33509 0.749116 5.18252C1.25591 4.02996 2.00259 2.99868 2.93938 2.15744C4.70857 0.714745 6.93402 -0.0501664 9.21632 -5.88363e-06C10.4831 -0.0446175 11.7451 0.177272 12.9206 0.651298L12.1065 2.78432C11.1247 2.36296 10.0647 2.15483 8.99651 2.17372C7.49415 2.15027 6.03397 2.67073 4.88515 3.63916C4.20142 4.28416 3.65995 5.06488 3.29544 5.93128C2.93094 6.79769 2.75143 7.73068 2.76841 8.67048C2.76841 11.3083 4.20942 12.8307 6.95304 12.8307C7.60056 12.8473 8.24505 12.7367 8.84996 12.505L9.55012 8.82517H6.9449L7.32754 6.77356H12.3996L10.9993 14.174Z" fill="#003082"/>
<path d="M16.0962 0.390786C17.2775 0.149359 18.4808 0.0320297 19.6865 0.0407095C20.9879 -0.0332932 22.2808 0.293472 23.3908 0.97696C23.8188 1.2797 24.1674 1.6813 24.4069 2.14763C24.6464 2.61395 24.7699 3.13121 24.7667 3.65545C24.7475 4.6332 24.4034 5.57676 23.7887 6.33737C23.174 7.09799 22.3237 7.6324 21.3717 7.85636V7.92149C22.308 8.29599 22.7476 9.31365 22.8779 10.7058C22.9466 12.0867 23.1153 13.4607 23.3826 14.8172H20.753C20.6634 14.4671 20.5169 13.0749 20.3866 11.3083C20.2564 9.54161 19.5725 8.76005 18.2536 8.76005H17.008L15.8519 14.8172H13.3281L16.0962 0.390786ZM17.3825 6.85498H18.8235C20.7856 6.85498 22.137 5.6175 22.137 4.02181C22.137 2.64593 21.0705 2.04347 19.6295 2.04347C19.1698 2.02535 18.7098 2.06917 18.2618 2.17373L17.3825 6.85498Z" fill="#003082"/>
<path d="M34.1449 8.29599H28.8775L28.0634 12.676H33.9902L33.575 14.8335H25.0918L27.8761 0.179108H36.0174L35.6022 2.33655H30.0091L29.309 6.16297H34.6008L34.1449 8.29599Z" fill="#003082"/>
<path d="M38.2241 14.2554C38.0698 14.4404 37.8786 14.5913 37.6628 14.6983C37.447 14.8054 37.2112 14.8663 36.9706 14.8771C36.7299 14.888 36.4896 14.8486 36.265 14.7615C36.0404 14.6743 35.8365 14.5414 35.6661 14.371C35.4958 14.2007 35.3628 13.9967 35.2756 13.7721C35.1885 13.5475 35.1491 13.3072 35.16 13.0665C35.1708 12.8259 35.2317 12.5901 35.3388 12.3743C35.4458 12.1585 35.5967 11.9673 35.7817 11.813C35.936 11.628 36.1271 11.4772 36.343 11.3701C36.5588 11.2631 36.7945 11.2022 37.0352 11.1913C37.2759 11.1804 37.5161 11.2198 37.7407 11.307C37.9653 11.3941 38.1693 11.5271 38.3397 11.6975C38.51 11.8678 38.643 12.0718 38.7301 12.2964C38.8173 12.521 38.8567 12.7613 38.8458 13.0019C38.8349 13.2426 38.774 13.4783 38.667 13.6942C38.5599 13.91 38.4091 14.1011 38.2241 14.2554ZM35.9445 11.9677C35.7017 12.212 35.5511 12.5329 35.5182 12.8757C35.4853 13.2186 35.5722 13.5622 35.7642 13.8482C35.9561 14.1342 36.2412 14.3448 36.5709 14.4443C36.9007 14.5438 37.2547 14.5259 37.5728 14.3938C37.8908 14.2617 38.1533 14.0235 38.3155 13.7196C38.4777 13.4158 38.5297 13.0652 38.4625 12.7274C38.3953 12.3896 38.2132 12.0855 37.9471 11.8668C37.681 11.6482 37.3473 11.5285 37.0029 11.5281C36.8044 11.524 36.6072 11.5609 36.4237 11.6365C36.2402 11.7122 36.0743 11.8249 35.9364 11.9677H35.9445ZM36.9622 12.0654C37.1384 12.0558 37.3148 12.0778 37.4832 12.1305C37.5771 12.1686 37.6564 12.2358 37.7091 12.3223C37.7619 12.4088 37.7855 12.51 37.7763 12.6109C37.7811 12.6843 37.7662 12.7577 37.7333 12.8235C37.7004 12.8893 37.6506 12.9451 37.5891 12.9854C37.5038 13.0336 37.4096 13.0641 37.3123 13.0749C37.3766 13.0817 37.4388 13.1019 37.4949 13.1341C37.551 13.1664 37.5997 13.21 37.6379 13.2622C37.7023 13.3468 37.7392 13.4491 37.7437 13.5553V13.6937C37.7437 13.7344 37.7437 13.7832 37.7437 13.8321C37.7386 13.8644 37.7386 13.8974 37.7437 13.9298H37.4507V13.6774C37.4631 13.5948 37.4531 13.5103 37.4216 13.4329C37.39 13.3556 37.3382 13.2881 37.2715 13.2378C37.1529 13.1896 37.0246 13.1701 36.897 13.1808H36.6365V13.9298H36.3027V12.0654H36.9622ZM37.3285 12.3666C37.2007 12.3099 37.0611 12.2848 36.9215 12.2934H36.6365V13.0261H36.9378C37.0452 13.0315 37.1527 13.0177 37.2553 12.9854C37.3085 12.9613 37.3547 12.924 37.3894 12.877C37.4241 12.8299 37.4462 12.7748 37.4535 12.7169C37.4609 12.6589 37.4532 12.6 37.4314 12.5458C37.4095 12.4916 37.3741 12.444 37.3285 12.4073V12.3666Z" fill="#003082"/>
</g>
<defs>
<clipPath id="clip0_13210_3684">
<rect width="40" height="15" fill="white"/>
</clipPath>
</defs>
</svg>
